<svg id="visual" viewBox="0 0 900 600" width="900" height="600" xmlns="http://www.w3.org/2000/svg" xmlns:xlink="http://www.w3.org/1999/xlink" version="1.1"><path d="M0 61L82 109L164 139L245 91L327 127L409 121L491 151L573 91L655 121L736 133L818 139L900 55L900 0L818 0L736 0L655 0L573 0L491 0L409 0L327 0L245 0L164 0L82 0L0 0Z" fill="#00cc8e"></path><path d="M0 133L82 175L164 241L245 139L327 193L409 193L491 199L573 175L655 223L736 199L818 229L900 121L900 53L818 137L736 131L655 119L573 89L491 149L409 119L327 125L245 89L164 137L82 107L0 59Z" fill="#00b98a"></path><path d="M0 199L82 271L164 355L245 241L327 307L409 271L491 277L573 247L655 313L736 253L818 289L900 247L900 119L818 227L736 197L655 221L573 173L491 197L409 191L327 191L245 137L164 239L82 173L0 131Z" fill="#00a784"></path><path d="M0 457L82 493L164 427L245 463L327 409L409 493L491 493L573 511L655 451L736 379L818 373L900 439L900 245L818 287L736 251L655 311L573 245L491 275L409 269L327 305L245 239L164 353L82 269L0 197Z" fill="#00957c"></path><path d="M0 601L82 601L164 601L245 601L327 601L409 601L491 601L573 601L655 601L736 601L818 601L900 601L900 437L818 371L736 377L655 449L573 509L491 491L409 491L327 407L245 461L164 425L82 491L0 455Z" fill="#038373"></path></svg>